<?xml version="1.0" encoding="UTF-8" standalone="no"?>
<!DOCTYPE svg PUBLIC "-//W3C//DTD SVG 1.1//EN" "http://www.w3.org/Graphics/SVG/1.1/DTD/svg11.dtd">
<svg width="100%" height="100%" viewBox="0 0 1948 2150" version="1.1" xmlns="http://www.w3.org/2000/svg" xmlns:xlink="http://www.w3.org/1999/xlink" xml:space="preserve" xmlns:serif="http://www.serif.com/" style="fill-rule:evenodd;clip-rule:evenodd;stroke-linejoin:round;stroke-miterlimit:2;">
    <g transform="matrix(1,0,0,1,-1056.12,-1442.71)">
        <path d="M3003.74,2175.04C3003.74,1882.33 2766.1,1644.69 2473.39,1644.69C2473.39,1644.69 1586.46,1644.69 1586.46,1644.69C1293.76,1644.69 1056.12,1882.33 1056.12,2175.04L1056.12,3061.97C1056.12,3354.67 1293.76,3592.32 1586.46,3592.32L2473.39,3592.32C2766.1,3592.32 3003.74,3354.67 3003.74,3061.97C3003.74,3061.97 3003.74,2175.04 3003.74,2175.04ZM2829.98,2175.04L2829.98,3061.97C2829.98,3258.77 2670.2,3418.55 2473.39,3418.55C2473.39,3418.55 1586.46,3418.55 1586.46,3418.55C1389.66,3418.55 1229.88,3258.77 1229.88,3061.97C1229.88,3061.97 1229.88,2175.04 1229.88,2175.04C1229.88,1978.23 1389.66,1818.45 1586.46,1818.45L2473.39,1818.45C2670.2,1818.45 2829.98,1978.23 2829.98,2175.04Z" style="fill:rgb(37,181,254);"/>
        <g transform="matrix(1.62851,0,0,2.08261,-7094.41,-4613.95)">
            <path d="M5217.03,3316.8C5220.15,3304.3 5227.96,3287.11 5240.46,3265.23C5256.09,3243.36 5270.15,3224.61 5282.65,3208.98C5313.9,3183.98 5343.59,3171.48 5371.71,3171.48C5412.34,3171.48 5432.65,3190.23 5432.65,3227.73C5438.9,3277.73 5449.84,3335.55 5465.46,3401.17C5474.84,3432.42 5488.9,3448.05 5507.65,3448.05C5520.15,3448.05 5531.09,3440.23 5540.46,3424.61C5581.09,3387.11 5623.28,3346.48 5667.03,3302.73C5735.78,3237.11 5782.65,3188.67 5807.65,3157.42C5838.9,3119.92 5881.09,3076.17 5934.21,3026.17C5987.34,2979.3 6027.96,2946.48 6056.09,2927.73C6081.09,2912.11 6102.96,2905.86 6121.71,2908.98C6140.46,2912.11 6148.28,2926.17 6145.15,2951.17C6142.03,2976.17 6142.03,3001.17 6145.15,3026.17C6148.28,3044.92 6148.28,3055.86 6145.15,3058.98C6082.65,3133.98 6032.65,3188.67 5995.15,3223.05C5904.53,3329.3 5843.59,3394.92 5812.34,3419.92C5693.59,3535.55 5590.46,3635.55 5502.96,3719.92C5471.71,3748.05 5442.03,3763.67 5413.9,3766.8C5376.4,3769.92 5340.46,3755.86 5306.09,3724.61C5265.46,3690.23 5243.59,3649.61 5240.46,3602.73C5237.34,3549.61 5232.65,3510.55 5226.4,3485.55C5217.03,3441.8 5213.9,3385.55 5217.03,3316.8Z" style="fill:rgb(74,195,186);fill-rule:nonzero;"/>
        </g>
    </g>
</svg>
