<?xml version="1.0" encoding="UTF-8" standalone="no"?>
<!-- Created with Inkscape (http://www.inkscape.org/) -->

<svg
   xmlns:dc="http://purl.org/dc/elements/1.1/"
   xmlns:cc="http://creativecommons.org/ns#"
   xmlns:rdf="http://www.w3.org/1999/02/22-rdf-syntax-ns#"
   xmlns:svg="http://www.w3.org/2000/svg"
   xmlns="http://www.w3.org/2000/svg"
   xmlns:sodipodi="http://sodipodi.sourceforge.net/DTD/sodipodi-0.dtd"
   xmlns:inkscape="http://www.inkscape.org/namespaces/inkscape"
   version="1.1"
   id="svg3713"
   xml:space="preserve"
   width="800"
   height="268.52399"
   viewBox="0 0 800 268.52399"
   sodipodi:docname="logo.svg"
   inkscape:version="0.92.4 (5da689c313, 2019-01-14)"><metadata
     id="metadata3719"><rdf:RDF><cc:Work
         rdf:about=""><dc:format>image/svg+xml</dc:format><dc:type
           rdf:resource="http://purl.org/dc/dcmitype/StillImage" /><dc:title></dc:title></cc:Work></rdf:RDF></metadata><defs
     id="defs3717"><clipPath
       clipPathUnits="userSpaceOnUse"
       id="clipPath3729"><path
         d="M 0,201.393 H 600 V 0 H 0 Z"
         id="path3727"
         inkscape:connector-curvature="0" /></clipPath></defs><sodipodi:namedview
     pagecolor="#ffffff"
     bordercolor="#666666"
     borderopacity="1"
     objecttolerance="10"
     gridtolerance="10"
     guidetolerance="10"
     inkscape:pageopacity="0"
     inkscape:pageshadow="2"
     inkscape:window-width="2560"
     inkscape:window-height="1406"
     id="namedview3715"
     showgrid="false"
     inkscape:zoom="1.494375"
     inkscape:cx="409.57371"
     inkscape:cy="74.878817"
     inkscape:window-x="-11"
     inkscape:window-y="-11"
     inkscape:window-maximized="1"
     inkscape:current-layer="g3721" /><g
     id="g3721"
     inkscape:groupmode="layer"
     inkscape:label="LOGO"
     transform="matrix(1.3333333,0,0,-1.3333333,0,268.524)"><g
       id="g3723"><g
         id="g3725"
         clip-path="url(#clipPath3729)"><g
           id="g3731"
           transform="translate(292.1063,114.181)"><path
             d="M 0,0 C 0.217,-0.543 0.427,-1.091 0.629,-1.644 0.835,-1.07 1.049,-0.522 1.275,0 1.501,0.522 1.755,1.049 2.042,1.581 l 14.897,27.057 c 0.266,0.471 0.541,0.757 0.828,0.86 0.287,0.102 0.697,0.154 1.228,0.154 h 4.393 v -44.01 h -5.22 v 32.339 c 0,0.429 0.009,0.891 0.03,1.383 0.019,0.489 0.051,0.993 0.091,1.503 L 3.21,-6.649 C 2.697,-7.572 1.982,-8.031 1.061,-8.031 h -0.86 c -0.921,0 -1.639,0.459 -2.15,1.382 l -15.417,27.61 c 0.061,-0.534 0.107,-1.056 0.138,-1.567 0.03,-0.513 0.046,-0.984 0.046,-1.413 v -32.339 h -5.222 v 44.01 h 4.392 c 0.532,0 0.942,-0.052 1.229,-0.154 0.287,-0.103 0.562,-0.389 0.83,-0.86 L -0.751,1.55 C -0.464,1.058 -0.214,0.541 0,0"
             style="fill:#231f20;fill-opacity:1;fill-rule:nonzero;stroke:none"
             id="path3733"
             inkscape:connector-curvature="0" /></g><g
           id="g3735"
           transform="translate(360.7024,143.8328)"><path
             d="m 0,0 v -4.854 h -21.131 v -14.617 h 17.107 v -4.67 H -21.131 V -39.159 H 0 V -44.01 H -27.12 V 0 Z"
             style="fill:#231f20;fill-opacity:1;fill-rule:nonzero;stroke:none"
             id="path3737"
             inkscape:connector-curvature="0" /></g><g
           id="g3739"
           transform="translate(408.6712,121.8114)"><path
             d="m 0,0 c 0,2.704 -0.368,5.12 -1.105,7.248 -0.737,2.131 -1.781,3.933 -3.133,5.406 -1.35,1.474 -2.989,2.6 -4.912,3.378 -1.926,0.779 -4.066,1.168 -6.421,1.168 h -10.472 v -34.368 h 10.472 c 2.355,0 4.495,0.39 6.421,1.168 1.923,0.779 3.562,1.898 4.912,3.362 1.352,1.464 2.396,3.262 3.133,5.39 C -0.368,-5.117 0,-2.702 0,0 m 6.113,0 c 0,-3.296 -0.523,-6.295 -1.567,-8.999 -1.044,-2.702 -2.518,-5.014 -4.422,-6.94 -1.905,-1.923 -4.187,-3.413 -6.85,-4.469 -2.662,-1.054 -5.609,-1.581 -8.845,-1.581 h -16.461 v 44.01 h 16.461 c 3.236,0 6.183,-0.526 8.845,-1.583 2.663,-1.053 4.945,-2.548 6.85,-4.483 C 2.028,14.02 3.502,11.701 4.546,8.999 5.59,6.297 6.113,3.296 6.113,0"
             style="fill:#231f20;fill-opacity:1;fill-rule:nonzero;stroke:none"
             id="path3741"
             inkscape:connector-curvature="0" /></g><path
           d="m 437.325,47.985 h -5.959 v 42.776 h 5.959 z"
           style="fill:#231f20;fill-opacity:1;fill-rule:nonzero;stroke:none"
           id="path3743"
           inkscape:connector-curvature="0" /><g
           id="g3745"
           transform="translate(487.5087,108.9123)"><path
             d="m 0,0 c 0.326,0 0.622,-0.133 0.891,-0.399 l 2.333,-2.548 c -1.802,-2.089 -3.989,-3.716 -6.558,-4.884 -2.569,-1.165 -5.665,-1.751 -9.29,-1.751 -3.173,0 -6.05,0.548 -8.63,1.644 -2.579,1.096 -4.78,2.63 -6.603,4.607 -1.823,1.974 -3.236,4.345 -4.238,7.11 -1.002,2.763 -1.504,5.805 -1.504,9.12 0,3.318 0.537,6.358 1.611,9.122 1.075,2.765 2.586,5.139 4.53,7.125 1.947,1.986 4.276,3.527 6.987,4.623 2.714,1.096 5.707,1.643 8.985,1.643 3.233,0 6.024,-0.503 8.367,-1.506 2.345,-1.002 4.429,-2.364 6.25,-4.084 L 1.196,27.09 C 1.054,26.885 0.891,26.714 0.706,26.581 0.522,26.449 0.254,26.383 -0.093,26.383 c -0.266,0 -0.548,0.096 -0.844,0.292 -0.299,0.193 -0.651,0.433 -1.061,0.72 -0.408,0.287 -0.89,0.595 -1.443,0.921 -0.552,0.329 -1.208,0.636 -1.965,0.923 -0.758,0.287 -1.639,0.527 -2.642,0.721 -1.002,0.195 -2.161,0.291 -3.471,0.291 -2.355,0 -4.509,-0.403 -6.465,-1.212 -1.953,-0.809 -3.639,-1.961 -5.052,-3.455 -1.412,-1.495 -2.513,-3.318 -3.301,-5.467 -0.788,-2.15 -1.182,-4.556 -1.182,-7.218 0,-2.744 0.394,-5.189 1.182,-7.339 0.788,-2.149 1.863,-3.968 3.225,-5.45 1.361,-1.485 2.974,-2.618 4.837,-3.395 1.863,-0.778 3.87,-1.168 6.019,-1.168 1.311,0 2.488,0.077 3.532,0.231 1.045,0.154 2.012,0.394 2.903,0.723 0.89,0.326 1.72,0.741 2.487,1.242 0.77,0.502 1.541,1.101 2.32,1.798 C -0.667,-0.152 -0.329,0 0,0"
             style="fill:#231f20;fill-opacity:1;fill-rule:nonzero;stroke:none"
             id="path3747"
             inkscape:connector-curvature="0" /></g><g
           id="g3749"
           transform="translate(513.3068,116.1603)"><path
             d="M 0,0 H 16.431 L 9.521,17.907 C 9.069,19.012 8.63,20.394 8.199,22.052 7.973,21.212 7.754,20.438 7.539,19.732 7.325,19.026 7.115,18.408 6.91,17.874 Z m 28.838,-16.338 h -4.606 c -0.534,0 -0.963,0.133 -1.29,0.399 -0.328,0.266 -0.573,0.604 -0.739,1.014 L 18.089,-4.299 H -1.658 l -4.117,-10.626 c -0.142,-0.368 -0.389,-0.697 -0.736,-0.984 -0.348,-0.287 -0.779,-0.429 -1.29,-0.429 h -4.606 L 5.19,27.673 h 6.049 z"
             style="fill:#231f20;fill-opacity:1;fill-rule:nonzero;stroke:none"
             id="path3751"
             inkscape:connector-curvature="0" /></g><g
           id="g3753"
           transform="translate(561.0309,104.8279)"><path
             d="M 0,0 H 19.042 V -5.005 H -5.959 v 44.01 H 0 Z"
             style="fill:#231f20;fill-opacity:1;fill-rule:nonzero;stroke:none"
             id="path3755"
             inkscape:connector-curvature="0" /></g><g
           id="g3757"
           transform="translate(301.109,57.4561)"><path
             d="M 0,0 C 0.306,-0.002 0.586,-0.129 0.835,-0.38 L 3,-2.79 c -1.706,-1.944 -3.77,-3.452 -6.188,-4.528 -2.418,-1.071 -5.326,-1.596 -8.728,-1.568 -2.973,0.027 -5.667,0.562 -8.081,1.61 -2.405,1.049 -4.456,2.505 -6.152,4.372 -1.693,1.868 -3,4.102 -3.918,6.704 -0.919,2.597 -1.365,5.455 -1.338,8.564 0.026,3.111 0.555,5.958 1.583,8.542 1.032,2.587 2.466,4.799 4.307,6.647 1.841,1.848 4.036,3.273 6.585,4.281 2.554,1.006 5.366,1.495 8.44,1.469 3.034,-0.026 5.645,-0.52 7.836,-1.478 2.19,-0.96 4.136,-2.254 5.829,-3.881 L 1.338,25.397 C 1.203,25.205 1.049,25.047 0.875,24.925 0.7,24.8 0.45,24.741 0.122,24.746 c -0.249,0 -0.511,0.094 -0.787,0.28 -0.28,0.183 -0.607,0.411 -0.988,0.682 -0.38,0.273 -0.831,0.566 -1.347,0.876 -0.516,0.313 -1.128,0.606 -1.836,0.882 -0.709,0.275 -1.535,0.507 -2.471,0.695 -0.94,0.192 -2.025,0.291 -3.253,0.302 -2.209,0.019 -4.233,-0.344 -6.074,-1.085 -1.837,-0.743 -3.428,-1.81 -4.766,-3.201 -1.334,-1.39 -2.379,-3.091 -3.136,-5.101 -0.756,-2.009 -1.145,-4.263 -1.167,-6.76 -0.022,-2.573 0.328,-4.869 1.049,-6.892 0.722,-2.022 1.719,-3.736 2.978,-5.138 1.268,-1.403 2.772,-2.479 4.513,-3.22 1.74,-0.746 3.62,-1.126 5.636,-1.144 1.229,-0.011 2.331,0.053 3.315,0.188 0.979,0.136 1.889,0.355 2.724,0.654 0.84,0.3 1.622,0.682 2.344,1.146 0.726,0.466 1.456,1.021 2.191,1.668 C -0.625,-0.136 -0.306,0.002 0,0"
             style="fill:#231f20;fill-opacity:1;fill-rule:nonzero;stroke:none"
             id="path3759"
             inkscape:connector-curvature="0" /></g><g
           id="g3761"
           transform="translate(323.9438,53.4331)"><path
             d="m 0,0 17.858,-0.153 -0.039,-4.694 -23.447,0.199 0.35,41.275 5.588,-0.046 z"
             style="fill:#231f20;fill-opacity:1;fill-rule:nonzero;stroke:none"
             id="path3763"
             inkscape:connector-curvature="0" /></g><g
           id="g3765"
           transform="translate(361.4624,48.4197)"><path
             d="M 0,0 -5.588,0.048 -5.239,41.323 0.35,41.275 Z"
             style="fill:#231f20;fill-opacity:1;fill-rule:nonzero;stroke:none"
             id="path3767"
             inkscape:connector-curvature="0" /></g><g
           id="g3769"
           transform="translate(383.7724,89.3207)"><path
             d="m 0,0 c 0.236,-0.127 0.512,-0.383 0.813,-0.77 l 23.64,-31.309 c -0.053,0.499 -0.088,0.986 -0.101,1.456 -0.017,0.47 -0.022,0.925 -0.017,1.369 l 0.244,29.234 4.898,-0.041 -0.35,-41.275 -2.82,0.024 c -0.442,0.002 -0.814,0.083 -1.107,0.238 -0.297,0.158 -0.586,0.418 -0.874,0.785 L 0.713,-9.008 c 0.035,-0.479 0.061,-0.949 0.078,-1.41 0.014,-0.462 0.018,-0.883 0.018,-1.268 l -0.249,-29.407 -4.898,0.039 0.35,41.275 2.882,-0.024 C -0.608,0.192 -0.241,0.127 0,0"
             style="fill:#231f20;fill-opacity:1;fill-rule:nonzero;stroke:none"
             id="path3771"
             inkscape:connector-curvature="0" /></g><g
           id="g3773"
           transform="translate(486.0431,55.9103)"><path
             d="M 0,0 C 0.306,-0.002 0.582,-0.129 0.831,-0.38 L 3,-2.79 c -1.706,-1.944 -3.77,-3.452 -6.188,-4.528 -2.422,-1.073 -5.33,-1.596 -8.728,-1.568 -2.978,0.025 -5.671,0.562 -8.081,1.61 -2.409,1.049 -4.46,2.505 -6.152,4.372 -1.697,1.868 -3,4.102 -3.918,6.704 -0.919,2.597 -1.365,5.455 -1.338,8.564 0.026,3.111 0.551,5.958 1.583,8.542 1.027,2.585 2.466,4.799 4.302,6.647 1.841,1.847 4.041,3.273 6.59,4.279 2.554,1.008 5.366,1.497 8.44,1.471 3.03,-0.026 5.645,-0.52 7.831,-1.48 2.195,-0.958 4.137,-2.252 5.829,-3.879 L 1.334,25.397 C 1.203,25.205 1.045,25.047 0.875,24.923 0.7,24.8 0.446,24.741 0.122,24.743 c -0.249,0.003 -0.516,0.094 -0.791,0.28 -0.276,0.184 -0.603,0.414 -0.988,0.685 -0.381,0.273 -0.831,0.564 -1.347,0.876 -0.516,0.313 -1.128,0.606 -1.837,0.882 -0.708,0.273 -1.53,0.507 -2.47,0.695 -0.936,0.192 -2.025,0.291 -3.254,0.302 -2.208,0.017 -4.228,-0.344 -6.069,-1.087 -1.841,-0.743 -3.433,-1.808 -4.766,-3.199 -1.334,-1.39 -2.384,-3.091 -3.14,-5.101 -0.757,-2.009 -1.141,-4.263 -1.163,-6.76 -0.022,-2.573 0.328,-4.869 1.049,-6.892 0.722,-2.022 1.714,-3.736 2.978,-5.138 1.264,-1.403 2.768,-2.479 4.508,-3.222 1.741,-0.744 3.621,-1.126 5.637,-1.142 1.229,-0.011 2.335,0.051 3.315,0.188 0.979,0.136 1.889,0.352 2.728,0.654 0.84,0.3 1.618,0.682 2.344,1.146 0.726,0.463 1.452,1.021 2.186,1.668 C -0.625,-0.138 -0.31,0.002 0,0"
             style="fill:#231f20;fill-opacity:1;fill-rule:nonzero;stroke:none"
             id="path3775"
             inkscape:connector-curvature="0" /></g><g
           id="g3777"
           transform="translate(220.6413,41.7489)"><path
             d="M 0,0 H -20.423 C -28.205,22.456 -36.038,45.058 -44.458,69.352 -52.84,45.204 -60.657,22.686 -68.5,0.091 h -20.384 c -2.984,8.726 -5.935,17.353 -8.89,25.994 3.743,11.024 7.447,21.933 11.757,34.626 2.759,-8.631 5.003,-15.652 7.248,-22.674 0.504,-0.022 1.008,-0.044 1.512,-0.066 7.647,23.042 15.295,46.084 23.025,69.374 h 20.171 c 7.7,-23.265 15.423,-46.597 23.791,-71.879 7.69,24.987 14.79,48.053 21.968,71.373 H 36.163 C 24.099,71.196 12.122,35.812 0,0"
             style="fill:#4ac3ba;fill-opacity:1;fill-rule:nonzero;stroke:none"
             id="path3779"
             inkscape:connector-curvature="0" /></g><g
           id="g3781"
           transform="translate(54.423,149.1445)"><path
             d="m 0,0 h 20.231 c 7.772,-23.457 15.494,-46.762 23.835,-71.935 7.706,25.102 14.802,48.215 21.936,71.455 h 24.53 C 78.37,-36.342 66.352,-71.781 54.304,-107.305 H 33.853 C 26.06,-84.786 18.296,-62.352 9.887,-38.053 1.528,-62.112 -6.272,-84.562 -14.147,-107.225 H -34.496 C -22.92,-71.243 -11.486,-35.703 0,0"
             style="fill:#25b5fe;fill-opacity:1;fill-rule:nonzero;stroke:none"
             id="path3783"
             inkscape:connector-curvature="0" /></g><g
           id="g3785"
           transform="translate(115.0199,148.5308)"><path
             d="m 0,0 c -2.954,-9.734 -5.654,-18.654 -8.396,-27.562 -0.099,-0.322 -0.62,-0.513 -1.373,-1.1 -3.226,9.517 -6.389,18.848 -9.717,28.662 z"
             style="fill:#4ac3ba;fill-opacity:1;fill-rule:nonzero;stroke:none"
             id="path3787"
             inkscape:connector-curvature="0" /></g><g
           id="g3789"
           transform="translate(434.0041,100.2728)"><path
             d="M 0,0 C 0.033,0.423 0.068,1.64 -0.067,2.184 -0.379,1.596 -0.327,0.389 0,0 m -0.244,9.619 v 2.857 C -0.798,12.334 -1.32,12.247 -1.676,11.812 -1.722,11.171 -1.219,9.922 -0.244,9.619 M -0.505,26.59 c -0.671,-0.072 -1.163,-0.278 -1.551,-0.613 -0.625,-0.538 -0.712,-1.953 -0.209,-2.582 0.456,-0.57 1.054,-0.937 1.76,-1.111 z m -19.3,13.888 c 3.252,-0.508 6.313,-0.067 9.348,0.759 -0.153,0.081 -0.323,0.04 -0.482,0.026 -2.298,-0.2 -4.601,-0.25 -6.892,0.025 -1.994,0.24 -3.939,0.695 -5.542,2.026 -0.591,0.491 -1.078,1.072 -1.351,1.952 4.097,-0.759 8.155,-0.935 12.233,-0.692 -0.315,0 -0.63,-0.002 -0.945,0 -2.27,0.016 -4.506,0.311 -6.733,0.744 -1.906,0.37 -3.747,0.897 -5.446,1.85 -1.169,0.656 -2.141,1.511 -2.656,2.8 -0.249,0.626 -0.224,1.262 -0.175,1.99 4.809,-2.497 9.894,-3.761 15.191,-4.254 -2.469,0.529 -4.926,1.118 -7.322,1.92 -2.544,0.852 -5.014,1.879 -7.15,3.556 -1.301,1.021 -2.388,2.232 -2.948,3.819 -0.207,0.587 -0.273,1.225 -0.381,1.845 -0.029,0.168 -0.056,0.371 0.146,0.528 0.399,-0.098 0.707,-0.392 1.032,-0.624 1.483,-1.062 3.116,-1.834 4.781,-2.548 2.052,-0.88 4.191,-1.505 6.349,-2.054 1.207,-0.307 2.437,-0.529 3.662,-0.758 1.978,-0.369 3.957,-0.734 5.944,-1.052 0.625,-0.1 1.239,-0.245 1.862,-0.35 0.357,-0.06 0.633,-0.288 0.899,-0.511 1.371,-1.15 2.448,-2.581 3.682,-3.862 0.55,-0.571 1.098,-1.141 1.826,-1.662 0.074,1.446 -0.03,2.8 -0.087,4.203 -0.939,0.637 -1.521,1.509 -1.469,2.699 0.036,0.836 0.369,1.549 1.018,2.092 1.285,1.078 3.216,0.847 4.206,-0.489 0.998,-1.349 0.784,-3.331 -1.169,-4.432 v -4.068 c 0.727,0.481 1.265,1.061 1.81,1.629 1.094,1.141 2.114,2.348 3.216,3.482 0.778,0.801 1.75,1.029 2.769,1.21 1.589,0.282 3.178,0.558 4.765,0.849 1.75,0.322 3.508,0.608 5.243,0.997 3.065,0.688 6.134,1.389 9.006,2.713 1.178,0.543 2.323,1.171 3.078,2.301 0.031,0.047 0.107,0.064 0.24,0.138 0.028,-0.686 -0.043,-1.313 -0.235,-1.897 -0.604,-1.84 -1.751,-3.268 -3.332,-4.397 -2.2,-1.572 -4.638,-2.606 -7.184,-3.45 -2.292,-0.759 -4.639,-1.288 -6.988,-1.824 2.626,0.191 5.204,0.669 7.742,1.355 2.528,0.683 4.988,1.563 7.356,2.84 0.206,-0.544 0.162,-1.016 0.049,-1.478 -0.366,-1.502 -1.411,-2.463 -2.676,-3.199 -1.683,-0.979 -3.531,-1.501 -5.432,-1.89 -2.573,-0.526 -5.169,-0.76 -7.789,-0.799 4.072,-0.202 8.125,-0.036 12.236,0.739 -0.435,-1.232 -1.228,-1.989 -2.202,-2.561 -1.174,-0.69 -2.468,-1.031 -3.804,-1.288 -2.255,-0.435 -4.521,-0.258 -6.785,-0.268 -0.499,-0.002 -0.986,0.174 -1.55,0.094 3.094,-0.852 6.169,-1.268 9.407,-0.784 -0.316,-1.006 -0.927,-1.578 -1.695,-2.016 -0.912,-0.52 -1.916,-0.794 -2.943,-0.87 -1.715,-0.127 -3.432,-0.099 -5.125,0.278 -0.239,0.053 -0.371,0.206 -0.484,0.398 -1.248,2.11 -3.13,3.386 -5.425,4.119 -0.922,0.294 -1.86,0.507 -2.828,0.575 C 1.903,42.964 1.738,42.954 1.527,42.954 1.426,42.11 1.463,41.303 1.484,40.493 2.159,40.211 2.863,40.331 3.526,40.17 5.321,39.737 6.962,39.016 8.003,37.421 9.864,34.571 9.56,30.338 6.225,28.324 5.248,27.734 4.202,27.321 3.104,27.045 2.777,26.962 2.42,26.989 2.014,26.849 v 3.367 c 0.59,0.232 1.195,0.288 1.733,0.555 1.137,0.565 1.796,2.23 1.872,3.523 0.058,0.975 -0.375,1.65 -1.187,2.14 C 3.515,36.987 2.5,37.086 1.369,37.167 V 21.764 c 0.408,-0.241 0.945,-0.31 1.436,-0.503 1.297,-0.512 2.547,-1.093 3.356,-2.304 1.241,-1.858 0.797,-4.834 -1.938,-5.81 -0.787,-0.28 -1.596,-0.418 -2.478,-0.49 -0.108,0.861 -0.077,1.663 -0.03,2.487 0.503,0.178 1.01,0.125 1.484,0.321 0.868,0.358 1.275,1.6 0.254,2.265 -0.657,0.428 -1.357,0.744 -2.21,0.95 V 9.012 C 1.754,8.745 2.366,8.575 2.899,8.238 3.457,7.884 3.975,7.484 4.271,6.888 4.784,5.856 4.363,4.083 3.173,3.31 2.654,2.973 2.1,2.716 1.417,2.559 1.167,3.176 1.375,3.789 1.373,4.344 1.729,4.704 2.403,5.453 2.274,6.076 2.175,6.558 1.691,6.653 1.171,6.84 1.082,4.697 1.01,1.117 1.006,-0.97 1.624,-1.499 2.395,-1.781 3.153,-2.279 2.364,-2.411 1.72,-2.224 1.09,-2.014 0.915,-2.339 1.068,-2.655 0.932,-3.011 0.525,-2.67 0.33,-2.216 0.1,-1.806 c -0.103,0.183 -0.205,0.315 -0.375,0.433 -0.753,0.527 -1.388,1.14 -1.466,2.139 -0.094,1.204 0.462,2.794 1.59,3.283 0.107,0.818 0.024,2.359 0.027,3.193 -0.885,0.412 -1.788,0.713 -2.553,1.287 -0.752,0.564 -1.256,1.987 -1.35,2.949 -0.117,1.208 0.538,1.97 1.476,2.571 0.692,0.443 1.483,0.65 2.285,0.914 0.053,1.418 -0.094,2.809 -0.136,4.22 -0.37,0.33 -0.852,0.375 -1.27,0.549 -1.107,0.461 -2.184,0.946 -3.116,1.739 -1.858,1.579 -1.629,5.014 -0.094,6.55 1.091,1.092 2.478,1.579 3.958,1.853 0.097,0.018 0.194,0.032 0.356,0.06 0.084,2.063 -0.175,4.904 -0.136,7.024 -0.865,-0.132 -1.595,-0.373 -2.294,-0.716 -0.056,-0.027 -0.118,-0.086 -0.136,-0.143 -0.415,-1.323 -1.585,-1.804 -2.668,-2.364 -0.636,-0.328 -1.328,-0.526 -2.041,-0.626 -0.88,-0.125 -1.249,0.27 -1.019,1.113 0.349,1.275 0.932,2.452 1.568,3.604 0.311,0.563 0.846,0.856 1.427,0.89 1.212,0.073 2.28,0.533 3.349,1.028 0.544,0.251 1.147,0.316 1.701,0.505 v 2.615 c -2.148,-0.05 -6.417,-1.283 -8.499,-4.813 -0.255,-0.133 -0.549,-0.11 -0.825,-0.134 -1.576,-0.138 -3.142,-0.433 -4.733,-0.35 -1.204,0.063 -2.394,0.22 -3.438,0.893 -0.699,0.45 -1.211,1.058 -1.493,2.018"
             style="fill:#4ac3ba;fill-opacity:1;fill-rule:nonzero;stroke:none"
             id="path3791"
             inkscape:connector-curvature="0" /></g></g></g></g></svg>